<svg xmlns="http://www.w3.org/2000/svg" style="display: none;"><symbol id="worker" viewBox="0 0 512 512"><title>worker</title><g> <g> <path d="M356,429c-5.52,0-10,4.48-10,10c0,5.52,4.48,10,10,10c5.52,0,10-4.48,10-10C366,433.48,361.52,429,356,429z"/> </g> </g><g> <g> <path d="M156,429c-5.52,0-10,4.48-10,10c0,5.52,4.48,10,10,10s10-4.48,10-10C166,433.48,161.52,429,156,429z"/> </g> </g><g> <g> <path d="M447.645,377.21c-11.257-17.424-26.726-31.269-44.847-40.21c-1.528-1.419-3.493-2.37-5.678-2.613 C384.013,328.823,370.197,326,356,326h-30v-26.383c17.361-14.896,29.842-34.626,35.894-56.617H366c22.056,0,40-17.944,40-40 c0-10.452-4.034-19.976-10.622-27.11c0.629-0.534,1.243-1.09,1.833-1.679C402.879,168.543,406,161.01,406,153 c0-13.163-8.526-24.366-20.343-28.396c-3.533-45.984-35.806-85.28-80.241-97.596C302.783,13.256,291.434,0,276,0h-40 c-15.434,0-26.783,13.256-29.416,27.008c-44.431,12.315-76.701,51.604-80.24,97.582c-4.302,1.459-8.247,3.892-11.555,7.199 C109.121,137.457,106,144.99,106,153c0,9.163,4.134,17.375,10.63,22.882C110.038,183.016,106,192.544,106,203 c0,22.056,17.944,40,40,40h4.078c5.052,18.357,14.631,35.21,27.994,49.131c2.511,2.618,5.173,5.112,7.928,7.478V326h-30 c-14.198,0-28.014,2.823-41.12,8.386c-2.184,0.244-4.15,1.194-5.677,2.613c-18.123,8.942-33.591,22.787-44.848,40.21 C52.347,395.796,46,417.163,46,439v63c0,5.522,4.477,10,10,10h400c5.523,0,10-4.478,10-10v-63 C466,417.163,459.653,395.796,447.645,377.21z M106,492H66v-53c0-30.417,15.582-59.571,40-76.878V492z M366,223h-0.456 c0.298-3.327,0.456-6.666,0.456-10v-30c11.028,0,20,8.972,20,20S377.028,223,366,223z M206,48.139V93c0,5.523,4.477,10,10,10 s10-4.477,10-10V35.063c0-0.026,0-0.052,0-0.078V33c0-6.196,5.234-13,10-13h40c4.766,0,10,6.804,10,13v1.985 c0,0.026,0,0.052,0,0.078V93c0,5.523,4.477,10,10,10s10-4.477,10-10V48.139c32.29,11.427,55.6,40.647,59.441,74.861H146.559 C150.4,88.786,173.71,59.566,206,48.139z M146,223c-11.028,0-20-8.972-20-20s8.972-20,20-20v30c0,3.334,0.158,6.674,0.456,10H146z M146,163h-10c-5.514,0-10-4.486-10-10c0-2.668,1.041-5.179,2.931-7.068c1.891-1.891,4.401-2.932,7.069-2.932h240 c5.514,0,10,4.486,10,10c0,2.668-1.041,5.179-2.931,7.068c-1.89,1.891-4.401,2.932-7.069,2.932h-10h-10H156H146z M167.817,231.183 c-0.02-0.109-0.039-0.217-0.063-0.324C166.593,224.99,166,218.983,166,213v-30h180v30c0,5.978-0.593,11.981-1.754,17.855 c-0.024,0.108-0.043,0.217-0.063,0.326c-4.469,22.307-16.837,42.275-34.847,56.241C293.69,299.576,275.247,306,256,306 s-37.69-6.424-53.351-18.589c-3.585-2.774-6.997-5.843-10.145-9.126C179.889,265.143,171.357,248.862,167.817,231.183z M246,492 h-80v-23c0-5.523-4.477-10-10-10s-10,4.477-10,10v23h-20V351.474c6.49-2.447,13.176-4.078,20-4.882V409c0,5.523,4.477,10,10,10 s10-4.477,10-10v-63h25.715L246,403V492z M206,332v-18.626C221.431,321.669,238.427,326,256,326c17.574,0,34.571-4.332,50-12.625 V332l-50,52.5L206,332z M386,492h-20v-23c0-5.523-4.477-10-10-10s-10,4.477-10,10v23h-80v-89l54.285-57H346v63 c0,5.523,4.477,10,10,10s10-4.477,10-10v-62.408c6.824,0.804,13.509,2.436,20,4.883V492z M446,492h-40V362.121 c24.418,17.307,40,46.461,40,76.879V492z"/> </g> </g></symbol><symbol id="sketch" viewBox="0 0 511.999 511.999"><title>sketch</title><g> <g> <path d="M453.034,361.322c-2.808-1.164-6.04-0.521-8.19,1.628l-82.126,82.126c-2.149,2.15-2.792,5.382-1.628,8.19 c1.162,2.809,3.904,4.639,6.943,4.639h82.126c4.151,0,7.515-3.364,7.515-7.515v-82.126 C457.673,365.225,455.842,362.485,453.034,361.322z M386.173,442.876l56.469-56.469v56.469H386.173z"/> </g> </g><g> <g> <path d="M507.361,240.867c-2.808-1.164-6.04-0.521-8.19,1.628l-22.507,22.507V111.971c0-4.151-3.365-7.515-7.515-7.515h-57.741 l20.96-20.96c0.003-0.003,0.006-0.007,0.009-0.01l20.196-20.196c4.327-4.327,6.71-10.083,6.71-16.203s-2.383-11.874-6.71-16.203 L429.219,7.53c-4.327-4.327-10.083-6.71-16.203-6.71s-11.875,2.383-16.203,6.71l-20.206,20.206l-24.416,24.416l-52.303,52.303 H66.62V30.11c0-4.151-3.365-7.515-7.515-7.515C26.515,22.597,0,49.11,0,81.702v319.186c0,0.555,0.064,1.095,0.178,1.615 c1.038,13.829,7.021,26.678,17.02,36.432C27.886,449.359,41.995,455.1,56.927,455.1h229.638l-43.249,43.249 c-2.149,2.15-2.792,5.381-1.629,8.19c1.163,2.808,3.904,4.639,6.943,4.639h255.855c4.15,0,7.515-3.364,7.515-7.515V247.81 C512,244.771,510.168,242.03,507.361,240.867z M407.443,18.159c3.072-3.074,8.077-3.074,11.149,0l23.355,23.355 c3.074,3.073,3.074,8.076,0,11.15l-14.891,14.892L392.55,33.051L407.443,18.159z M381.922,43.679l34.505,34.504l-13.789,13.789 l-34.503-34.504L381.922,43.679z M496.972,332.252h-13.865c-4.151,0-7.515,3.364-7.515,7.515c0,4.151,3.364,7.515,7.515,7.515 h13.865v22.646h-13.865c-4.151,0-7.515,3.364-7.515,7.515s3.364,7.515,7.515,7.515h13.865v22.645h-13.865 c-4.151,0-7.515,3.364-7.515,7.515c0,4.151,3.364,7.515,7.515,7.515h13.865v22.646h-13.865c-4.151,0-7.515,3.365-7.515,7.515 c0,4.151,3.364,7.515,7.515,7.515h13.865v35.842h-230.2l75.908-75.907c2.935-2.936,2.935-7.693,0-10.628 c-0.337-0.337-0.699-0.629-1.078-0.889c-2.926-2.004-6.952-1.709-9.551,0.889l-30.456,30.456H56.928 c-22.792,0-41.14-17.794-41.862-40.545c0.043-1.428,0.154-2.844,0.332-4.244c0.001-0.008,0.002-0.016,0.003-0.024 c0.084-0.665,0.185-1.327,0.3-1.985c0.013-0.075,0.027-0.15,0.04-0.225c0.105-0.587,0.223-1.171,0.352-1.753 c0.036-0.162,0.074-0.324,0.112-0.485c0.114-0.492,0.237-0.981,0.369-1.468c0.072-0.264,0.147-0.525,0.224-0.788 c0.11-0.382,0.224-0.763,0.345-1.14c0.121-0.377,0.25-0.75,0.381-1.123c0.091-0.261,0.181-0.522,0.279-0.781 c0.183-0.492,0.377-0.979,0.577-1.462c0.057-0.139,0.113-0.28,0.172-0.419c0.257-0.6,0.524-1.193,0.806-1.779 c0.012-0.025,0.023-0.05,0.035-0.075c5.878-12.164,17.183-21.233,30.75-24.047c0.038-0.008,0.076-0.017,0.114-0.025 c0.622-0.127,1.25-0.236,1.882-0.337c0.105-0.017,0.21-0.038,0.317-0.054c0.571-0.087,1.148-0.155,1.725-0.22 c0.162-0.018,0.323-0.043,0.486-0.059c0.557-0.056,1.119-0.093,1.681-0.128c0.178-0.011,0.356-0.03,0.534-0.039 c0.736-0.037,1.478-0.056,2.223-0.056c4.15,0,7.515-3.364,7.515-7.515v-54.489c0-4.151-3.365-7.515-7.515-7.515 c-4.15,0-7.515,3.364-7.515,7.515v47.447c-12.69,1.605-24.469,7.265-33.757,16.335c-0.977,0.954-1.903,1.946-2.805,2.954V81.702 c0-21.741,15.826-39.858,36.561-43.436v73.705v152.777v0.001c0,4.15,3.365,7.515,7.515,7.515c4.15,0,7.515-3.365,7.515-7.515 v-0.001V119.486h218.24l-41.544,41.544c-2.935,2.936-2.935,7.693,0,10.628c2.935,2.934,7.693,2.934,10.627,0l54.373-54.373 c0.002-0.002,0.003-0.004,0.005-0.005l49.185-49.185l34.503,34.505l-4.048,4.048c-0.003,0.003-0.007,0.006-0.01,0.009 l-151.528,151.53l-34.504-34.504l29.868-29.868c2.935-2.936,2.935-7.693,0-10.628c-2.935-2.934-7.693-2.934-10.627,0 l-35.183,35.182c-0.188,0.188-0.364,0.387-0.529,0.591c-0.055,0.068-0.104,0.141-0.156,0.212c-0.106,0.141-0.21,0.283-0.307,0.431 c-0.055,0.086-0.105,0.174-0.157,0.263c-0.083,0.14-0.163,0.282-0.236,0.427c-0.048,0.094-0.091,0.189-0.135,0.287 c-0.067,0.147-0.129,0.297-0.186,0.447c-0.02,0.053-0.046,0.103-0.065,0.156l-14.641,41.475l-9.982,28.279 c-0.132,0.376-0.227,0.758-0.298,1.143h-24.992c-4.15,0-7.515,3.364-7.515,7.515c0,4.151,3.365,7.515,7.515,7.515h208.114 c4.151,0,7.515-3.364,7.515-7.515c0-4.151-3.364-7.515-7.515-7.515H193.093l45.83-16.178c0.038-0.014,0.074-0.033,0.112-0.047 c0.178-0.066,0.353-0.14,0.526-0.219c0.069-0.032,0.138-0.062,0.205-0.095c0.18-0.09,0.357-0.189,0.531-0.295 c0.056-0.034,0.114-0.065,0.169-0.1c0.181-0.116,0.357-0.243,0.53-0.377c0.043-0.033,0.088-0.062,0.13-0.096 c0.209-0.168,0.414-0.349,0.608-0.543l154.644-154.643h65.255v160.546L354.137,387.53c-2.935,2.936-2.935,7.693,0,10.628 c0.183,0.183,0.374,0.355,0.571,0.516c1.378,1.123,3.061,1.685,4.743,1.685s3.366-0.562,4.743-1.685 c0.197-0.16,0.388-0.333,0.571-0.516c0.003-0.003,0,0,0.003-0.003L496.972,265.95V332.252z M222.677,265.696l-21.526,7.599 l-14.342-14.342l7.599-21.526L222.677,265.696z"/> </g> </g></symbol><symbol id="contract" viewBox="0 0 497.208 497.208"><title>contract</title><g> <g> <path d="M466.292,240c-33.44,0-64.48-16.608-83.032-44.44l-6.656-9.984l-6.656,9.984C351.396,223.392,320.356,240,286.916,240 h-30.312v128.288c0,31.008,13.96,60.152,37.288,79.712H128.604v-32h104V272h-168v64h-48V16h352v144h16V0h-384v347.312L117.292,464 h201.192l58.12,33.208l67.6-38.624c32.32-18.464,52.4-53.072,52.4-90.296V240H466.292z M112.604,436.688L27.916,352h84.688 V436.688z M80.604,336v-48h136v112h-88v-64H80.604z M480.604,368.288c0,31.504-16.992,60.776-44.336,76.408l-59.664,34.096 l-59.664-34.096c-27.344-15.632-44.336-44.904-44.336-76.408V256h14.312c35.04,0,67.808-15.72,89.688-42.544 C398.484,240.28,431.252,256,466.292,256h14.312V368.288z"/> </g> </g><g> <g> <path d="M448.604,320v48.288c0,20.048-10.816,38.68-28.216,48.624l7.936,13.888c22.376-12.784,36.28-36.736,36.28-62.512V320 H448.604z"/> </g> </g><g> <g> <path d="M48.604,32v48h288V32H48.604z M320.604,64h-256V48h256V64z"/> </g> </g><g> <g> <polygon points="442.948,274.344 336.604,380.688 310.26,354.344 298.948,365.656 336.604,403.312 454.26,285.656 "/> </g> </g><g> <g> <rect x="96.604" y="304" width="104" height="16"/> </g> </g><g> <g> <rect x="144.604" y="336" width="56" height="16"/> </g> </g><g> <g> <rect x="144.604" y="368" width="56" height="16"/> </g> </g><g> <g> <rect x="48.604" y="112" width="256" height="16"/> </g> </g><g> <g> <rect x="48.604" y="144" width="256" height="16"/> </g> </g><g> <g> <rect x="48.604" y="176" width="256" height="16"/> </g> </g><g> <g> <rect x="48.604" y="208" width="152" height="16"/> </g> </g><g> <g> <rect x="48.604" y="240" width="152" height="16"/> </g> </g><g> <g> <rect x="320.604" y="112" width="16" height="16"/> </g> </g><g> <g> <rect x="320.604" y="144" width="16" height="16"/> </g> </g><g> <g> <rect x="320.604" y="176" width="16" height="16"/> </g> </g><g> <g> <rect x="216.604" y="208" width="16" height="16"/> </g> </g><g> <g> <rect x="216.604" y="240" width="16" height="16"/> </g> </g></symbol><symbol id="indoors" viewBox="0 0 512 512"><title>indoors</title><path id="XMLID_27_" d="m482 492h-20v-293.138h20c4.257 0 8.047-2.694 9.445-6.715 1.398-4.02.099-8.485-3.239-11.126l-30.206-23.907v-112.6c0-5.523-4.478-10-10-10h-54c-5.522 0-10 4.477-10 10v54.035l-121.794-96.391c-3.637-2.878-8.775-2.878-12.412 0l-226 178.862c-3.338 2.642-4.638 7.106-3.239 11.126 1.398 4.021 5.188 6.715 9.445 6.715h20v101.569c0 5.523 4.478 10 10 10s10-4.477 10-10v-101.568h372v293.138h-18.53c-26.707-1.021-51.669-11.898-70.673-30.903l-35.54-35.539c-13.98-13.981-31.903-22.572-51.257-24.784v-37.499c4.265.626 8.547.946 12.814.946 23.188 0 45.894-9.112 62.65-25.869 22.243-22.243 31.014-54.96 22.89-85.384-.923-3.458-3.624-6.159-7.081-7.082-30.423-8.123-63.142.646-85.385 22.89-6.466 6.465-11.784 13.82-15.889 21.742-4.105-7.922-9.423-15.276-15.889-21.741-22.243-22.243-54.963-31.013-85.385-22.89-3.457.923-6.158 3.624-7.081 7.082-8.124 30.424.646 63.142 22.89 85.384 16.758 16.758 39.461 25.869 62.65 25.869 4.267 0 8.549-.32 12.814-.946v37.499c-19.354 2.212-37.276 10.803-51.257 24.783l-35.54 35.54c-19.002 19.003-43.964 29.88-70.671 30.902h-18.53v-101.569c0-5.523-4.478-10-10-10s-10 4.477-10 10v101.569h-20c-5.522 0-10 4.477-10 10s4.478 10 10 10h452c5.522 0 10-4.477 10-10s-4.478-10-10-10zm-195.969-209.082c15.805-15.805 38.449-22.82 60.281-18.989 3.83 21.832-3.184 44.476-18.99 60.282-15.805 15.805-38.446 22.819-60.281 18.989-3.83-21.832 3.183-44.476 18.99-60.282zm-41.072 60.282c-21.833 3.83-44.478-3.185-60.281-18.99-15.807-15.806-22.82-38.45-18.99-60.281 21.832-3.829 44.478 3.185 60.281 18.99 15.806 15.805 22.82 38.449 18.99 60.281zm-92.314 148.8c7.387-4.791 14.328-10.387 20.701-16.76l35.54-35.54c12.585-12.584 29.316-19.516 47.114-19.516s34.529 6.931 47.114 19.516l35.54 35.54c6.373 6.373 13.314 11.97 20.701 16.76zm251.355-437.486h34v86.772l-34-26.909zm-345.251 124.348 197.251-156.109 197.251 156.109z"/><path id="XMLID_183_" d="m60 355.433c2.63 0 5.21-1.07 7.069-2.93 1.86-1.86 2.931-4.44 2.931-7.07s-1.07-5.21-2.931-7.07c-1.859-1.87-4.439-2.93-7.069-2.93s-5.21 1.06-7.07 2.93c-1.86 1.86-2.93 4.43-2.93 7.07 0 2.63 1.069 5.21 2.93 7.07 1.86 1.86 4.44 2.93 7.07 2.93z"/></symbol><symbol id="tree" viewBox="0 0 512 512"><title>tree</title><path d="M437.094,160.109c3.984-9.778,5.998-20.118,5.998-30.835c0-2.173-0.086-4.369-0.256-6.524 c-0.316-4.012-3.827-7.005-7.836-6.692c-4.011,0.316-7.008,3.824-6.692,7.836c0.139,1.777,0.211,3.587,0.211,5.38 c0,10.904-2.534,21.332-7.532,30.994c-0.934,1.803-1.071,3.914-0.381,5.824c0.69,1.91,2.146,3.445,4.016,4.235 c28.454,12.027,46.84,39.757,46.84,70.645c0,41.064-32.133,74.68-73.154,76.53c-3.153,0.142-5.856,2.298-6.695,5.34 c-5.43,19.669-27.246,33.945-51.872,33.945c-11.734,0-22.926-3.123-32.145-8.889l24.074-37.99 c1.687-2.662,2.553-5.613,2.643-8.553c0.149-4.9-1.859-9.768-5.821-13.215c-6.703-5.832-16.843-5.447-23.086,0.873l-18.065,18.289 l5.89-43.63c0.622-4.613-0.709-9.326-3.652-12.931c-2.575-3.155-6.228-5.269-10.212-5.959c-0.569-0.098-1.145-0.168-1.725-0.207 l-6.508-0.44c-3.238-0.22-6.335,0.485-9.019,1.9c-4.474,2.358-7.805,6.692-8.742,12.014l-5.698,32.375l-5.698,32.374 l-35.182-43.267c-1.167-1.435-2.543-2.638-4.056-3.591c-0.009-0.006-0.018-0.013-0.027-0.019c-0.163-0.102-0.334-0.19-0.5-0.287 c-2.165-1.257-4.579-2.032-7.062-2.252c-0.079-0.007-0.16-0.006-0.239-0.012c-0.366-0.027-0.732-0.05-1.1-0.054 c-2.242-0.022-4.506,0.401-6.65,1.303l-6.799,2.858c-4.515,1.897-7.978,5.655-9.502,10.309c-1.524,4.655-0.953,9.733,1.567,13.934 l28.798,48c-8.59,4.588-18.647,7.068-28.958,7.068c-24.627,0-46.442-14.276-51.872-33.944c-0.84-3.043-3.543-5.198-6.695-5.34 c-41.021-1.85-73.154-35.466-73.154-76.531c0-30.889,18.386-58.619,46.84-70.645c1.87-0.79,3.326-2.325,4.016-4.235 c0.69-1.91,0.552-4.021-0.381-5.824c-4.998-9.662-7.532-20.09-7.532-30.994c0-37.265,30.318-67.583,67.583-67.583 c10.387,0,20.359,2.3,29.637,6.836c1.943,0.951,4.209,0.988,6.184,0.102c1.973-0.886,3.452-2.603,4.034-4.687 c8.118-29.067,34.88-49.368,65.079-49.368c30.199,0,56.961,20.301,65.079,49.368c0.583,2.084,2.061,3.802,4.034,4.687 c1.974,0.887,4.241,0.85,6.184-0.102c9.278-4.536,19.25-6.836,29.637-6.836c24.911,0,47.73,13.639,59.551,35.596 c1.907,3.543,6.327,4.869,9.87,2.961c3.544-1.907,4.869-6.327,2.961-9.87c-14.367-26.684-42.102-43.26-72.382-43.26 c-9.839,0-19.373,1.699-28.444,5.061C320.293,21.083,289.933,0,256.001,0c-33.931,0-64.292,21.083-76.49,52.179 c-9.071-3.362-18.605-5.061-28.444-5.061c-45.302,0-82.157,36.855-82.157,82.156c0,10.717,2.014,21.058,5.998,30.835 c-29.962,15.653-48.94,46.627-48.94,80.863c0,47.179,35.631,86.097,82.019,90.723c9.12,23.595,34.75,39.665,64.275,39.665 c12.944,0,25.62-3.214,36.457-9.142l3.611,6.018c4.926,8.212,6.965,17.938,5.74,27.389c-1.06,8.171-2.365,17.793-4.02,27.211 c-0.696,3.964,1.953,7.741,5.916,8.437c3.969,0.697,7.741-1.953,8.437-5.916c1.705-9.703,3.039-19.527,4.119-27.86 c1.645-12.691-1.087-25.746-7.695-36.759l-39.907-66.517c-0.472-0.786-0.337-1.53-0.214-1.904 c0.122-0.374,0.454-1.053,1.298-1.408l6.8-2.858c0.936-0.394,2.04-0.118,2.681,0.671l38.835,47.76 c0.103,0.126,0.212,0.244,0.319,0.365c1.443,1.64,3.238,2.819,5.211,3.466c2.096,0.688,4.386,0.778,6.651,0.205 c0.025-0.006,0.05-0.01,0.076-0.017c0,0,0,0,0.001,0h0.001c2.201-0.572,4.115-1.714,5.604-3.259 c0.058-0.061,0.121-0.118,0.178-0.179c0.052-0.057,0.1-0.118,0.151-0.176c1.428-1.611,2.418-3.615,2.813-5.862l12.399-70.449 c0.205-1.164,1.274-1.977,2.426-1.901l6.509,0.44c0.867,0.059,1.394,0.553,1.63,0.843c0.236,0.289,0.615,0.903,0.498,1.766 l-6.947,51.469c-0.086,0.637-0.12,1.271-0.104,1.898c0.108,4.389,2.632,8.422,6.667,10.404c0.288,0.142,0.58,0.271,0.875,0.387 c1.473,0.584,3.019,0.858,4.55,0.837c3.062-0.042,6.067-1.263,8.323-3.548l23.622-23.916c0.408-0.413,0.939-0.636,1.481-0.673 c0.024-0.002,0.047-0.008,0.071-0.009c0.012,0,0.024,0.002,0.036,0.002c0.414-0.009,0.83,0.089,1.201,0.302 c0.127,0.073,0.249,0.159,0.364,0.259c0.865,0.753,1.047,2.004,0.434,2.973l-32.077,50.616 c-6.737,10.632-9.848,23.417-8.758,35.999c3.052,35.249,8.341,74.994,31.324,108.703H202.105 c8.224-12.196,14.614-26.071,19.392-42.043c1.153-3.855-1.037-7.916-4.893-9.069c-3.857-1.153-7.917,1.037-9.069,4.893 c-5.828,19.482-14.22,35.433-25.657,48.761c-1.853,2.16-2.279,5.202-1.09,7.788c1.189,2.586,3.774,4.243,6.62,4.243h137.185 c2.846,0,5.432-1.657,6.62-4.243c1.189-2.586,0.763-5.628-1.09-7.787c-28.059-32.706-33.853-75.221-37.082-112.503 c-0.815-9.421,1.51-18.99,6.549-26.941l0.204-0.323c11.543,7.234,25.447,11.158,39.944,11.158 c29.525,0,55.155-16.07,64.275-39.666c46.388-4.626,82.019-43.544,82.019-90.722C486.034,206.736,467.056,175.762,437.094,160.109 z"/></symbol></svg>